<svg width="188" height="188" viewBox="0 0 188 188" fill="none" xmlns="http://www.w3.org/2000/svg">
<path d="M76.965 85.4825L42.3306 86.0467L2 45.7161L36.6343 45.1519L76.965 85.4825Z" stroke="#4A005F" stroke-miterlimit="10"/>
<path d="M85.4825 76.965L86.0467 42.3037L45.7161 2L45.1519 36.6343L85.4825 76.965Z" stroke="#4A005F" stroke-miterlimit="10"/>
<path d="M111.035 102.518L145.669 101.953L186 142.284L151.366 142.848L111.035 102.518Z" stroke="#4A005F" stroke-miterlimit="10"/>
<path d="M102.518 111.035L101.953 145.696L142.284 186L142.848 151.366L102.518 111.035Z" stroke="#4A005F" stroke-miterlimit="10"/>
<path d="M85.4825 111.035L86.0467 145.669L45.7161 186L45.1519 151.366L85.4825 111.035Z" stroke="#4A005F" stroke-miterlimit="10"/>
<path d="M76.965 102.518L42.3306 101.953L2 142.284L36.6343 142.848L76.965 102.518Z" stroke="#4A005F" stroke-miterlimit="10"/>
<path d="M102.518 76.965L101.953 42.3306L142.284 2L142.848 36.6343L102.518 76.965Z" stroke="#4A005F" stroke-miterlimit="10"/>
<path d="M111.035 85.4825L145.696 86.0467L186 45.7161L151.366 45.1519L111.035 85.4825Z" stroke="#4A005F" stroke-miterlimit="10"/>
<path d="M100.422 100.422H87.5783V87.5783H100.422V100.422Z" stroke="#4A005F" stroke-miterlimit="10"/>
</svg>
