<svg width="131" height="131" viewBox="0 0 131 131" fill="none" xmlns="http://www.w3.org/2000/svg">
  <!--
    Favicon version of icon-desktop.svg.
    Uses a <style> block with prefers-color-scheme so the mark is dark on
    light browser chrome and light on dark browser chrome.
    stroke="currentColor" doesn't work in favicon contexts; hardcode here.
  -->
  <style>
    .mark { stroke: #1a1a2e; }
    @media (prefers-color-scheme: dark) { .mark { stroke: #e8e8f0; } }
  </style>
  <path class="mark" d="M53.7421 59.6211L29.8369 60.0105L2 32.1736L25.9052 31.7842L53.7421 59.6211Z" stroke-miterlimit="10"/>
  <path class="mark" d="M59.6211 53.7421L60.0105 29.8183L32.1736 2L31.7842 25.9052L59.6211 53.7421Z" stroke-miterlimit="10"/>
  <path class="mark" d="M77.2579 71.3789L101.163 70.9895L129 98.8264L105.095 99.2158L77.2579 71.3789Z" stroke-miterlimit="10"/>
  <path class="mark" d="M71.3789 77.2579L70.9895 101.182L98.8264 129L99.2158 105.095L71.3789 77.2579Z" stroke-miterlimit="10"/>
  <path class="mark" d="M59.6211 77.2579L60.0105 101.163L32.1736 129L31.7842 105.095L59.6211 77.2579Z" stroke-miterlimit="10"/>
  <path class="mark" d="M53.7421 71.3789L29.8369 70.9895L2 98.8264L25.9052 99.2158L53.7421 71.3789Z" stroke-miterlimit="10"/>
  <path class="mark" d="M71.3789 53.7421L70.9895 29.8369L98.8264 2L99.2158 25.9052L71.3789 53.7421Z" stroke-miterlimit="10"/>
  <path class="mark" d="M77.2579 59.6211L101.182 60.0105L129 32.1736L105.095 31.7842L77.2579 59.6211Z" stroke-miterlimit="10"/>
  <path class="mark" d="M69.9324 69.9324H61.0676V61.0676H69.9324V69.9324Z" stroke-miterlimit="10"/>
</svg>
